<svg width="59" height="22" viewBox="0 0 59 22" fill="none" xmlns="http://www.w3.org/2000/svg">
<g clip-path="url(#clip0_362_15)">
<path d="M8.69165 0.805605H6.24408C2.30348 0.805605 -0.0496826 3.25551 -0.0496826 7.35767V14.978C-0.0496826 15.3733 0.265005 15.6973 0.656617 15.6973H1.22655C1.61467 15.6973 1.93285 15.3768 1.93285 14.978V9.86811C1.93285 9.6687 2.09369 9.5049 2.2895 9.5049H8.38745C8.77557 9.5049 9.09375 9.18442 9.09375 8.7856V8.43307C9.09375 8.03781 8.77906 7.71377 8.38745 7.71377H2.286C2.0902 7.71377 1.92935 7.54996 1.92935 7.35055C1.92935 4.14574 3.33146 2.58606 6.2196 2.58606H8.68815C9.07627 2.58606 9.39445 2.26558 9.39445 1.86675V1.51423C9.39445 1.11896 9.07976 0.794922 8.68815 0.794922L8.69165 0.805605Z" fill="white"/>
<path d="M20.9155 13.9097H13.5728C13.377 13.9097 13.2162 13.7459 13.2162 13.5465V1.52131C13.2162 1.12604 12.9015 0.802002 12.5099 0.802002H11.9994C11.6113 0.802002 11.2931 1.12248 11.2931 1.52131V14.978C11.2931 15.3732 11.6078 15.6973 11.9994 15.6973H20.9121C21.3002 15.6973 21.6184 15.3768 21.6184 14.978V14.6254C21.6184 14.2302 21.3037 13.9061 20.9121 13.9061L20.9155 13.9097Z" fill="white"/>
<path d="M58.1501 0.805563H57.6186C57.2305 0.805563 56.9123 1.12604 56.9123 1.52487V9.893C56.9123 12.3714 55.6046 13.9097 53.4997 13.9097C51.3948 13.9097 50.1256 12.3714 50.1256 9.893V1.52131C50.1256 1.12604 49.8109 0.802002 49.4193 0.802002H48.8878C48.4997 0.802002 48.1815 1.12248 48.1815 1.52131V9.8289C48.1815 12.3465 46.8808 13.9097 44.7864 13.9097C42.6919 13.9097 41.4122 12.3714 41.4122 9.893V1.52131C41.4122 1.12604 41.0975 0.802002 40.7059 0.802002H40.1744C39.7863 0.802002 39.4681 1.12248 39.4681 1.52131V9.88944C39.4681 13.518 41.5206 15.8611 44.699 15.8611C46.4367 15.8611 47.8878 15.124 48.7794 13.7886C48.8493 13.6854 48.9577 13.6248 49.0766 13.6213H49.0801C49.192 13.6213 49.2969 13.6747 49.3633 13.7708C50.3109 15.1204 51.8039 15.8611 53.5662 15.8611C56.72 15.8611 58.8389 13.461 58.8389 9.88944V1.52131C58.8389 1.12604 58.5242 0.802002 58.1326 0.802002L58.1501 0.805563Z" fill="white"/>
<path d="M1.22306 18.8276C1.22306 18.8276 1.22306 18.8597 1.21956 18.8739C1.21606 18.8882 1.21257 18.8989 1.20557 18.906C1.19858 18.9131 1.19159 18.9202 1.18459 18.9273C1.1776 18.9309 1.16711 18.9345 1.16012 18.9345H0.188082V19.903H1.11117C1.11117 19.903 1.12865 19.903 1.13564 19.9066C1.14264 19.9066 1.14963 19.9173 1.15662 19.9244C1.16361 19.9315 1.16711 19.9422 1.17061 19.9564C1.1741 19.9707 1.1741 19.9849 1.1741 20.0063C1.1741 20.0241 1.1741 20.0383 1.17061 20.0526C1.17061 20.0668 1.16361 20.0775 1.15662 20.0846C1.14963 20.0918 1.14264 20.0989 1.13564 20.106C1.12865 20.1096 1.11816 20.1131 1.11117 20.1131H0.188082V21.2419C0.188082 21.2419 0.188082 21.2562 0.181089 21.2633C0.177592 21.2704 0.170599 21.274 0.160109 21.2775C0.14962 21.2811 0.13913 21.2847 0.125144 21.2882C0.111158 21.2882 0.0901787 21.2918 0.0691995 21.2918C0.0482203 21.2918 0.0272411 21.2918 0.013255 21.2882C-0.000731156 21.2847 -0.0147173 21.2811 -0.0217104 21.2775C-0.0322 21.274 -0.0356965 21.2669 -0.0426896 21.2633C-0.0461861 21.2562 -0.0496826 21.249 -0.0496826 21.2419V18.8454C-0.0496826 18.7991 -0.039193 18.7635 -0.0147173 18.7493C0.00975844 18.7315 0.0342342 18.7244 0.0587099 18.7244H1.16012C1.16012 18.7244 1.1776 18.7244 1.18459 18.7315C1.19159 18.735 1.19858 18.7422 1.20557 18.7529C1.21257 18.7635 1.21606 18.7742 1.21956 18.7885C1.22306 18.8027 1.22306 18.8169 1.22306 18.8383V18.8276Z" fill="white"/>
<path d="M1.96783 21.2382C1.96783 21.2382 1.96783 21.2525 1.96084 21.2596C1.95734 21.2667 1.95035 21.2703 1.94336 21.2738C1.93287 21.2774 1.92238 21.2809 1.90839 21.2845C1.8944 21.2845 1.87343 21.2881 1.84895 21.2881C1.82797 21.2881 1.80699 21.2881 1.79301 21.2845C1.77902 21.2809 1.76503 21.2774 1.75804 21.2738C1.74755 21.2703 1.74405 21.2631 1.74056 21.2596C1.74056 21.2525 1.73706 21.2453 1.73706 21.2382V18.5711C1.73706 18.5711 1.73706 18.5568 1.74056 18.5497C1.74056 18.5426 1.75105 18.539 1.75804 18.5319C1.76853 18.5284 1.77902 18.5248 1.79301 18.5212C1.80699 18.5212 1.82797 18.5212 1.84895 18.5212C1.87343 18.5212 1.89091 18.5212 1.90839 18.5212C1.92238 18.5212 1.93287 18.5284 1.94336 18.5319C1.95035 18.5355 1.95734 18.5426 1.96084 18.5497C1.96434 18.5568 1.96783 18.564 1.96783 18.5711V21.2382Z" fill="white"/>
<path d="M4.05181 20.2482C4.05181 20.2945 4.04132 20.3301 4.01684 20.3479C3.99237 20.3657 3.96789 20.3728 3.94341 20.3728H2.7441C2.7441 20.4832 2.75459 20.5829 2.77557 20.6719C2.79655 20.761 2.83152 20.8393 2.88047 20.9034C2.92942 20.9675 2.99236 21.0174 3.07278 21.0494C3.1532 21.085 3.2476 21.0993 3.36299 21.0993C3.44341 21.0993 3.51684 21.0921 3.58327 21.0779C3.64971 21.0636 3.70565 21.0458 3.7511 21.028C3.80006 21.0102 3.83852 20.9924 3.86649 20.9782C3.89446 20.9639 3.91894 20.9568 3.93292 20.9568C3.93992 20.9568 3.94691 20.9568 3.9539 20.9639C3.9609 20.9675 3.96439 20.9746 3.96789 20.9817C3.97139 20.9889 3.97488 21.0031 3.97838 21.0138C3.97838 21.028 3.97838 21.0423 3.97838 21.0636C3.97838 21.0743 3.97838 21.0814 3.97838 21.0886C3.97838 21.0957 3.97838 21.1064 3.97488 21.1135C3.97488 21.1206 3.97139 21.1277 3.96439 21.1349C3.9609 21.142 3.9539 21.1491 3.95041 21.1562C3.94341 21.1633 3.92244 21.174 3.89097 21.1918C3.856 21.2096 3.81404 21.2239 3.7581 21.2417C3.70215 21.2595 3.63922 21.2737 3.56929 21.288C3.49586 21.3022 3.41893 21.3093 3.33851 21.3093C3.20215 21.3093 3.08327 21.288 2.97837 21.2453C2.87348 21.2025 2.78606 21.142 2.71263 21.0601C2.6427 20.9782 2.58676 20.8785 2.55179 20.7574C2.51683 20.6363 2.49585 20.4975 2.49585 20.3408C2.49585 20.1841 2.51333 20.0523 2.55179 19.9348C2.59026 19.8138 2.6462 19.7141 2.71613 19.6286C2.78606 19.5467 2.87347 19.4826 2.97487 19.4363C3.07627 19.3936 3.18816 19.3687 3.31054 19.3687C3.44341 19.3687 3.5553 19.39 3.64971 19.4363C3.74411 19.4826 3.82104 19.5431 3.88048 19.6179C3.93992 19.6927 3.98537 19.7817 4.01334 19.8814C4.04132 19.9811 4.0553 20.088 4.0553 20.1983V20.2446L4.05181 20.2482ZM3.81404 20.1805C3.81754 19.9918 3.77558 19.8423 3.68467 19.7354C3.59376 19.6286 3.46439 19.5752 3.29306 19.5752C3.20565 19.5752 3.12872 19.593 3.06229 19.625C2.99585 19.6606 2.93991 19.7034 2.89445 19.7568C2.849 19.8138 2.81403 19.8779 2.78956 19.9491C2.76508 20.0239 2.7511 20.0986 2.7476 20.177H3.81754L3.81404 20.1805Z" fill="white"/>
<path d="M5.75452 21.199C5.75452 21.199 5.772 21.2275 5.772 21.2382C5.772 21.2489 5.76851 21.2596 5.75802 21.2667C5.74753 21.2738 5.73354 21.2809 5.71606 21.2809C5.69857 21.2809 5.6741 21.2845 5.64613 21.2845C5.61815 21.2845 5.59718 21.2845 5.57969 21.2845C5.56221 21.2845 5.55172 21.2809 5.54123 21.2738C5.53074 21.2667 5.52375 21.2631 5.51676 21.2596C5.50976 21.2524 5.50627 21.2453 5.49927 21.2382L5.02374 20.4904L4.55171 21.2382C4.55171 21.2382 4.54122 21.2524 4.53423 21.2596C4.52724 21.2667 4.52024 21.2703 4.50975 21.2738C4.49926 21.2774 4.48528 21.2809 4.47129 21.2845C4.45731 21.2881 4.43283 21.2845 4.40835 21.2845C4.38388 21.2845 4.3594 21.2845 4.34192 21.2809C4.32444 21.2809 4.31045 21.2738 4.30346 21.2667C4.29647 21.2596 4.29297 21.2489 4.29297 21.2382C4.29297 21.2275 4.29996 21.2133 4.31045 21.199L4.89088 20.3302L4.33842 19.4827C4.33842 19.4827 4.32094 19.4542 4.32094 19.4435C4.32094 19.4328 4.32444 19.4221 4.33493 19.415C4.34542 19.4079 4.3594 19.4043 4.38038 19.4008C4.40136 19.3972 4.42234 19.3972 4.45031 19.3972C4.47828 19.3972 4.49926 19.3972 4.51675 19.3972C4.53423 19.3972 4.54472 19.4008 4.55521 19.4043C4.5657 19.4079 4.57269 19.415 4.57619 19.4186C4.57968 19.4257 4.58668 19.4328 4.59017 19.4399L5.03773 20.1414L5.49578 19.4399C5.49578 19.4399 5.50627 19.4257 5.50976 19.4186C5.51326 19.4115 5.52025 19.4079 5.53074 19.4043C5.53773 19.4008 5.55172 19.3972 5.56571 19.3972C5.57969 19.3972 5.60067 19.3972 5.62864 19.3972C5.65662 19.3972 5.6776 19.3972 5.69857 19.4008C5.71606 19.4008 5.73004 19.4079 5.74053 19.415C5.75102 19.4221 5.75452 19.4293 5.75102 19.4435C5.75102 19.4542 5.74403 19.4684 5.73354 19.4862L5.17759 20.3266L5.75452 21.2026V21.199Z" fill="white"/>
<path d="M6.45732 18.8418C6.45732 18.9059 6.44683 18.9486 6.42585 18.97C6.40487 18.9913 6.36291 19.002 6.30697 19.002C6.25102 19.002 6.20906 18.9913 6.18809 18.97C6.16711 18.9486 6.15662 18.9059 6.15662 18.8418C6.15662 18.7777 6.16711 18.735 6.18809 18.7136C6.20906 18.6922 6.25102 18.678 6.30697 18.678C6.36291 18.678 6.40137 18.6887 6.42585 18.71C6.44683 18.7314 6.45732 18.7741 6.45732 18.8382V18.8418ZM6.42235 21.2383C6.42235 21.2383 6.42235 21.2525 6.41536 21.2596C6.41186 21.2668 6.40487 21.2703 6.39788 21.2739C6.38739 21.2774 6.3769 21.281 6.36291 21.2846C6.34893 21.2846 6.32795 21.2881 6.30347 21.2881C6.28249 21.2881 6.26151 21.2881 6.24753 21.2846C6.23354 21.281 6.21955 21.2774 6.21256 21.2739C6.20207 21.2703 6.19857 21.2632 6.19508 21.2596C6.19508 21.2525 6.19158 21.2454 6.19158 21.2383V19.4471C6.19158 19.4471 6.19158 19.4329 6.19508 19.4258C6.19508 19.4186 6.20557 19.4151 6.21256 19.408C6.22305 19.4044 6.23354 19.4008 6.24753 19.3973C6.26151 19.3973 6.28249 19.3973 6.30347 19.3973C6.32795 19.3973 6.34543 19.3973 6.36291 19.3973C6.3769 19.3973 6.38739 19.4008 6.39788 19.408C6.40487 19.4115 6.41186 19.4186 6.41536 19.4258C6.41886 19.4329 6.42235 19.44 6.42235 19.4471V21.2383Z" fill="white"/>
<path d="M8.60423 20.3196C8.60423 20.4727 8.58674 20.6116 8.55528 20.7327C8.52381 20.8537 8.47486 20.9606 8.41192 21.046C8.34898 21.1315 8.26856 21.1991 8.17415 21.2454C8.07975 21.2917 7.97135 21.3167 7.84898 21.3167C7.79303 21.3167 7.74408 21.3095 7.69862 21.2988C7.65317 21.2882 7.60772 21.2704 7.56226 21.2454C7.51681 21.2205 7.47485 21.1885 7.42589 21.1493C7.37694 21.1101 7.33149 21.0638 7.27554 21.0104V21.2419C7.27554 21.2419 7.27554 21.2597 7.26855 21.2668C7.26505 21.2739 7.25806 21.2775 7.24757 21.281C7.23708 21.2846 7.22659 21.2882 7.2161 21.2917C7.20212 21.2917 7.18813 21.2917 7.16715 21.2917C7.14617 21.2917 7.13219 21.2917 7.1182 21.2917C7.10421 21.2917 7.09372 21.2882 7.08323 21.281C7.07275 21.2739 7.06925 21.2704 7.06575 21.2668C7.06575 21.2597 7.06226 21.2526 7.06226 21.2419V18.5748C7.06226 18.5748 7.06226 18.5605 7.06575 18.5534C7.06575 18.5463 7.07624 18.5427 7.08323 18.5356C7.09372 18.532 7.10421 18.5285 7.1182 18.5249C7.13219 18.5249 7.15317 18.5249 7.17414 18.5249C7.19862 18.5249 7.2161 18.5249 7.23359 18.5249C7.24757 18.5249 7.25806 18.532 7.26855 18.5356C7.27554 18.5391 7.28254 18.5463 7.28603 18.5534C7.28953 18.5605 7.29303 18.5676 7.29303 18.5748V19.6929C7.34897 19.6323 7.40142 19.5825 7.45387 19.5433C7.50632 19.5042 7.55527 19.4721 7.60072 19.4472C7.64618 19.4223 7.69513 19.4044 7.74408 19.3938C7.79303 19.3831 7.83849 19.3795 7.89093 19.3795C8.01681 19.3795 8.1252 19.4044 8.21611 19.4543C8.30702 19.5042 8.38045 19.5718 8.43639 19.6573C8.49234 19.7427 8.5343 19.8424 8.55877 19.9564C8.58325 20.0703 8.59723 20.195 8.59723 20.3232L8.60423 20.3196ZM8.36297 20.3552C8.36297 20.2555 8.35597 20.1594 8.33849 20.0632C8.3245 19.9706 8.29653 19.8852 8.25807 19.814C8.21961 19.7427 8.17066 19.6822 8.10772 19.6395C8.04478 19.5967 7.96786 19.5718 7.87345 19.5718C7.828 19.5718 7.78254 19.5789 7.73709 19.5932C7.69163 19.6074 7.64618 19.6288 7.60072 19.6573C7.55527 19.6893 7.50632 19.7285 7.45736 19.7748C7.40841 19.8246 7.35596 19.8816 7.30002 19.9528V20.7327C7.39792 20.8537 7.49233 20.9463 7.57974 21.0069C7.67065 21.071 7.76506 21.103 7.85947 21.103C7.95038 21.103 8.0238 21.0816 8.09024 21.0353C8.15317 20.9926 8.20562 20.9321 8.24408 20.8609C8.28604 20.7896 8.31401 20.7077 8.3315 20.6187C8.34898 20.5297 8.35947 20.4407 8.35947 20.3481L8.36297 20.3552Z" fill="white"/>
<path d="M9.36993 21.2382C9.36993 21.2382 9.36993 21.2525 9.36294 21.2596C9.35944 21.2667 9.35245 21.2703 9.34546 21.2738C9.33497 21.2774 9.32448 21.2809 9.31049 21.2845C9.2965 21.2845 9.27552 21.2881 9.25105 21.2881C9.23007 21.2881 9.20909 21.2881 9.1951 21.2845C9.18112 21.2809 9.16713 21.2774 9.16014 21.2738C9.14965 21.2703 9.14615 21.2631 9.14266 21.2596C9.14266 21.2525 9.13916 21.2453 9.13916 21.2382V18.5711C9.13916 18.5711 9.13916 18.5568 9.14266 18.5497C9.14266 18.5426 9.15315 18.539 9.16014 18.5319C9.17063 18.5284 9.18112 18.5248 9.1951 18.5212C9.20909 18.5212 9.23007 18.5212 9.25105 18.5212C9.27552 18.5212 9.29301 18.5212 9.31049 18.5212C9.32448 18.5212 9.33497 18.5284 9.34546 18.5319C9.35245 18.5355 9.35944 18.5426 9.36294 18.5497C9.36643 18.5568 9.36993 18.564 9.36993 18.5711V21.2382Z" fill="white"/>
<path d="M11.4504 20.2482C11.4504 20.2945 11.4399 20.3301 11.4154 20.3479C11.3909 20.3657 11.3664 20.3728 11.342 20.3728H10.1427C10.1427 20.4832 10.1532 20.5829 10.1741 20.6719C10.1951 20.761 10.2301 20.8393 10.279 20.9034C10.328 20.9675 10.3909 21.0174 10.4713 21.0494C10.5518 21.085 10.6462 21.0993 10.7615 21.0993C10.842 21.0993 10.9154 21.0921 10.9818 21.0779C11.0483 21.0636 11.1042 21.0458 11.1497 21.028C11.1986 21.0102 11.2371 20.9924 11.2651 20.9782C11.293 20.9639 11.3175 20.9568 11.3315 20.9568C11.3385 20.9568 11.3455 20.9568 11.3525 20.9639C11.3595 20.9675 11.363 20.9746 11.3664 20.9817C11.3699 20.9889 11.3734 21.0031 11.3769 21.0138C11.3769 21.028 11.3769 21.0423 11.3769 21.0636C11.3769 21.0743 11.3769 21.0814 11.3769 21.0886C11.3769 21.0957 11.3769 21.1064 11.3734 21.1135C11.3734 21.1206 11.3699 21.1277 11.363 21.1349C11.3595 21.142 11.3525 21.1491 11.349 21.1562C11.342 21.1633 11.321 21.174 11.2895 21.1918C11.2546 21.2096 11.2126 21.2239 11.1567 21.2417C11.1007 21.2595 11.0378 21.2737 10.9678 21.288C10.8944 21.3022 10.8175 21.3093 10.7371 21.3093C10.6007 21.3093 10.4818 21.288 10.3769 21.2453C10.272 21.2025 10.1846 21.142 10.1112 21.0601C10.0413 20.9782 9.98532 20.8785 9.95035 20.7574C9.91539 20.6363 9.89441 20.4975 9.89441 20.3408C9.89441 20.1841 9.91189 20.0523 9.95035 19.9348C9.98882 19.8138 10.0448 19.7141 10.1147 19.6286C10.1846 19.5467 10.272 19.4826 10.3734 19.4363C10.4748 19.3936 10.5867 19.3687 10.7091 19.3687C10.842 19.3687 10.9539 19.39 11.0483 19.4363C11.1427 19.4826 11.2196 19.5431 11.279 19.6179C11.3385 19.6927 11.3839 19.7817 11.4119 19.8814C11.4399 19.9811 11.4539 20.088 11.4539 20.1983V20.2446L11.4504 20.2482ZM11.2126 20.1805C11.2161 19.9918 11.1741 19.8423 11.0832 19.7354C10.9923 19.6286 10.8629 19.5752 10.6916 19.5752C10.6042 19.5752 10.5273 19.593 10.4608 19.625C10.3944 19.6606 10.3385 19.7034 10.293 19.7568C10.2476 19.8138 10.2126 19.8779 10.1881 19.9491C10.1636 20.0239 10.1497 20.0986 10.1462 20.177H11.2161L11.2126 20.1805Z" fill="white"/>
<path d="M12.3246 21.0389C12.3246 21.0745 12.3246 21.1065 12.3211 21.135C12.3211 21.1635 12.3106 21.192 12.3036 21.2169C12.2966 21.2419 12.2861 21.2703 12.2721 21.2953C12.2581 21.3202 12.2442 21.3487 12.2232 21.3772L11.9539 21.7974C11.9539 21.7974 11.9435 21.8116 11.9365 21.8187C11.9295 21.8258 11.9225 21.8294 11.912 21.833C11.9015 21.8365 11.891 21.8401 11.877 21.8401C11.863 21.8401 11.8491 21.8401 11.8281 21.8401C11.8141 21.8401 11.8001 21.8401 11.7931 21.8401C11.7826 21.8401 11.7756 21.8365 11.7721 21.833C11.7686 21.8294 11.7651 21.8223 11.7651 21.8187C11.7651 21.8116 11.7651 21.8045 11.7721 21.7974L12.0414 21.2561V21.0353C12.0414 21.0068 12.0414 20.9819 12.0484 20.9641C12.0519 20.9463 12.0623 20.9321 12.0728 20.9249C12.0833 20.9142 12.1008 20.9107 12.1183 20.9071C12.1358 20.9036 12.1567 20.9036 12.1847 20.9036C12.2092 20.9036 12.2302 20.9036 12.2477 20.9071C12.2651 20.9107 12.2791 20.9178 12.2931 20.9249C12.3036 20.9356 12.3141 20.9463 12.3176 20.9641C12.3246 20.9819 12.3281 21.0068 12.3281 21.0353L12.3246 21.0389Z" fill="white"/>
<path d="M15.1602 21.167C15.1602 21.1848 15.1602 21.2026 15.1567 21.2133C15.1567 21.2275 15.1497 21.2382 15.1462 21.2489C15.1427 21.2596 15.1357 21.2667 15.1252 21.2703C15.1182 21.2738 15.1077 21.2774 15.0973 21.2774H14.0063C13.9819 21.2774 13.9609 21.2667 13.9329 21.2525C13.9084 21.2346 13.8979 21.2026 13.8979 21.1563V18.7598C13.8979 18.7598 13.8979 18.7456 13.9049 18.7384C13.9084 18.7313 13.9154 18.7278 13.9259 18.7242C13.9364 18.7206 13.9469 18.7171 13.9609 18.7135C13.9749 18.71 13.9959 18.71 14.0168 18.71C14.0413 18.71 14.0588 18.71 14.0728 18.7135C14.0868 18.7135 14.1007 18.7206 14.1077 18.7242C14.1182 18.7278 14.1217 18.7349 14.1287 18.7384C14.1322 18.7456 14.1357 18.7527 14.1357 18.7598V21.0602H15.0973C15.0973 21.0602 15.1182 21.0602 15.1252 21.0673C15.1322 21.0708 15.1392 21.078 15.1462 21.0886C15.1532 21.0958 15.1567 21.11 15.1567 21.1207C15.1567 21.1314 15.1602 21.1492 15.1602 21.1705V21.167Z" fill="white"/>
<path d="M16.9574 20.2482C16.9574 20.2945 16.947 20.3301 16.9225 20.3479C16.898 20.3657 16.8735 20.3728 16.8491 20.3728H15.6497C15.6497 20.4832 15.6602 20.5829 15.6812 20.6719C15.7022 20.761 15.7372 20.8393 15.7861 20.9034C15.8351 20.9675 15.898 21.0174 15.9784 21.0494C16.0588 21.085 16.1532 21.0993 16.2686 21.0993C16.349 21.0993 16.4225 21.0921 16.4889 21.0779C16.5553 21.0636 16.6113 21.0458 16.6567 21.028C16.7057 21.0102 16.7442 20.9924 16.7721 20.9782C16.8001 20.9639 16.8246 20.9568 16.8386 20.9568C16.8456 20.9568 16.8526 20.9568 16.8595 20.9639C16.8665 20.9675 16.87 20.9746 16.8735 20.9817C16.877 20.9889 16.8805 21.0031 16.884 21.0138C16.884 21.028 16.884 21.0423 16.884 21.0636C16.884 21.0743 16.884 21.0814 16.884 21.0886C16.884 21.0957 16.884 21.1064 16.8805 21.1135C16.8805 21.1206 16.877 21.1277 16.87 21.1349C16.8665 21.142 16.8595 21.1491 16.856 21.1562C16.8491 21.1633 16.8281 21.174 16.7966 21.1918C16.7616 21.2096 16.7197 21.2239 16.6637 21.2417C16.6078 21.2595 16.5449 21.2737 16.4749 21.288C16.4015 21.3022 16.3246 21.3093 16.2442 21.3093C16.1078 21.3093 15.9889 21.288 15.884 21.2453C15.7791 21.2025 15.6917 21.142 15.6183 21.0601C15.5483 20.9782 15.4924 20.8785 15.4574 20.7574C15.4225 20.6363 15.4015 20.4975 15.4015 20.3408C15.4015 20.1841 15.419 20.0523 15.4574 19.9348C15.4959 19.8138 15.5518 19.7141 15.6218 19.6286C15.6917 19.5467 15.7791 19.4826 15.8805 19.4363C15.9819 19.3936 16.0938 19.3687 16.2162 19.3687C16.3491 19.3687 16.4609 19.39 16.5553 19.4363C16.6498 19.4826 16.7267 19.5431 16.7861 19.6179C16.8456 19.6927 16.891 19.7817 16.919 19.8814C16.947 19.9811 16.9609 20.088 16.9609 20.1983V20.2446L16.9574 20.2482ZM16.7197 20.1805C16.7232 19.9918 16.6812 19.8423 16.5903 19.7354C16.4994 19.6286 16.37 19.5752 16.1987 19.5752C16.1113 19.5752 16.0344 19.593 15.9679 19.625C15.9015 19.6606 15.8456 19.7034 15.8001 19.7568C15.7546 19.8138 15.7197 19.8779 15.6952 19.9491C15.6707 20.0239 15.6567 20.0986 15.6532 20.177H16.7232L16.7197 20.1805Z" fill="white"/>
<path d="M18.7232 21.2381C18.7232 21.2381 18.7197 21.2631 18.7092 21.2702C18.7022 21.2773 18.6882 21.2844 18.6742 21.2844C18.6603 21.2844 18.6428 21.288 18.6183 21.288C18.5938 21.288 18.5763 21.288 18.5623 21.2844C18.5484 21.2844 18.5344 21.2773 18.5274 21.2702C18.5204 21.2631 18.5134 21.2524 18.5134 21.2381V21.0387C18.433 21.1242 18.3456 21.1919 18.2512 21.2417C18.1568 21.288 18.0588 21.3129 17.954 21.3129C17.863 21.3129 17.7791 21.3022 17.7057 21.2773C17.6323 21.2524 17.5693 21.2168 17.5204 21.1741C17.4714 21.1313 17.4295 21.0743 17.405 21.0102C17.377 20.9462 17.363 20.8714 17.363 20.793C17.363 20.6933 17.384 20.6079 17.4225 20.5331C17.4609 20.4619 17.5204 20.3978 17.5938 20.3515C17.6672 20.3016 17.7546 20.266 17.8595 20.2411C17.9644 20.2162 18.0798 20.2055 18.2057 20.2055H18.4854V20.0524C18.4854 19.974 18.4784 19.9099 18.4609 19.8494C18.4435 19.7889 18.419 19.7426 18.384 19.7034C18.3491 19.6642 18.3036 19.6357 18.2477 19.6144C18.1917 19.593 18.1253 19.5859 18.0449 19.5859C17.9644 19.5859 17.898 19.5966 17.8351 19.6144C17.7721 19.6322 17.7197 19.6535 17.6707 19.6785C17.6253 19.7034 17.5868 19.7248 17.5553 19.7426C17.5239 19.7604 17.5029 19.7711 17.4889 19.7711C17.4819 19.7711 17.4749 19.7711 17.4679 19.7675C17.4609 19.7639 17.4574 19.7604 17.4505 19.7532C17.4435 19.7461 17.4435 19.7354 17.44 19.7248C17.44 19.7141 17.44 19.6998 17.44 19.6856C17.44 19.6571 17.44 19.6357 17.447 19.6179C17.4505 19.6001 17.4609 19.5859 17.4784 19.5681C17.4959 19.5503 17.5239 19.5325 17.5658 19.5111C17.6078 19.4897 17.6567 19.4684 17.7092 19.4506C17.7616 19.4328 17.8211 19.415 17.884 19.4043C17.947 19.3936 18.0099 19.3865 18.0693 19.3865C18.1882 19.3865 18.2931 19.4007 18.3735 19.4328C18.454 19.4648 18.5239 19.504 18.5763 19.561C18.6288 19.6179 18.6637 19.6856 18.6847 19.7675C18.7057 19.8494 18.7197 19.942 18.7197 20.0417V21.2524L18.7232 21.2381ZM18.4924 20.3942H18.1707C18.0763 20.3942 17.9959 20.4013 17.926 20.4191C17.856 20.4369 17.7966 20.4619 17.7512 20.4939C17.7057 20.526 17.6707 20.5651 17.6463 20.6114C17.6218 20.6577 17.6113 20.7111 17.6113 20.7681C17.6113 20.8714 17.6428 20.9533 17.7057 21.0138C17.7686 21.0743 17.8595 21.1064 17.9784 21.1064C18.0693 21.1064 18.1568 21.0815 18.2372 21.0352C18.3176 20.9889 18.4015 20.9141 18.4924 20.8108V20.3907V20.3942Z" fill="white"/>
<path d="M20.7896 21.2381C20.7896 21.2381 20.7896 21.2523 20.7826 21.2595C20.7791 21.2666 20.7721 21.2701 20.7651 21.2737C20.7582 21.2773 20.7442 21.2808 20.7302 21.2844C20.7162 21.2844 20.6952 21.2879 20.6742 21.2879C20.6498 21.2879 20.6323 21.2879 20.6183 21.2844C20.6043 21.2844 20.5903 21.2773 20.5833 21.2737C20.5763 21.2701 20.5693 21.263 20.5658 21.2595C20.5623 21.2523 20.5589 21.2452 20.5589 21.2381V20.1769C20.5589 20.0665 20.5519 19.9775 20.5344 19.9063C20.5169 19.8386 20.4924 19.7781 20.4575 19.7283C20.4225 19.6784 20.3805 19.6392 20.3281 19.6143C20.2756 19.5858 20.2162 19.5751 20.1463 19.5751C20.0553 19.5751 19.9679 19.6072 19.877 19.6713C19.7861 19.7354 19.6952 19.8315 19.5938 19.9562V21.2416C19.5938 21.2416 19.5938 21.2559 19.5868 21.263C19.5833 21.2701 19.5763 21.2737 19.5693 21.2773C19.5588 21.2808 19.5484 21.2844 19.5344 21.2879C19.5204 21.2879 19.4994 21.2915 19.4749 21.2915C19.4539 21.2915 19.433 21.2915 19.419 21.2879C19.405 21.2844 19.391 21.2808 19.384 21.2773C19.3735 21.2737 19.37 21.2666 19.3665 21.263C19.3665 21.2559 19.363 21.2488 19.363 21.2416V19.4505C19.363 19.4505 19.363 19.4363 19.3665 19.4291C19.3665 19.422 19.377 19.4185 19.384 19.4113C19.3945 19.4078 19.405 19.4042 19.419 19.4007C19.433 19.4007 19.4505 19.4007 19.4714 19.4007C19.4924 19.4007 19.5099 19.4007 19.5274 19.4007C19.5414 19.4007 19.5518 19.4042 19.5623 19.4113C19.5693 19.4149 19.5763 19.422 19.5798 19.4291C19.5833 19.4363 19.5833 19.4434 19.5833 19.4505V19.7033C19.6847 19.5894 19.7826 19.5039 19.8805 19.4541C19.9784 19.4042 20.0728 19.3757 20.1707 19.3757C20.2861 19.3757 20.384 19.3971 20.4609 19.4363C20.5414 19.4754 20.6043 19.5289 20.6533 19.5965C20.7022 19.6642 20.7372 19.7425 20.7582 19.8315C20.7791 19.9206 20.7896 20.0309 20.7896 20.1556V21.2416V21.2381Z" fill="white"/>
<path d="M21.7722 21.0389C21.7722 21.0745 21.7722 21.1065 21.7687 21.135C21.7687 21.1635 21.7582 21.192 21.7512 21.2169C21.7442 21.2419 21.7338 21.2703 21.7198 21.2953C21.7058 21.3202 21.6918 21.3487 21.6708 21.3772L21.4016 21.7974C21.4016 21.7974 21.3911 21.8116 21.3841 21.8187C21.3771 21.8258 21.3701 21.8294 21.3596 21.833C21.3491 21.8365 21.3386 21.8401 21.3247 21.8401C21.3107 21.8401 21.2967 21.8401 21.2757 21.8401C21.2617 21.8401 21.2477 21.8401 21.2407 21.8401C21.2303 21.8401 21.2233 21.8365 21.2198 21.833C21.2163 21.8294 21.2128 21.8223 21.2128 21.8187C21.2128 21.8116 21.2128 21.8045 21.2198 21.7974L21.489 21.2561V21.0353C21.489 21.0068 21.489 20.9819 21.496 20.9641C21.4995 20.9463 21.51 20.9321 21.5205 20.9249C21.531 20.9142 21.5484 20.9107 21.5659 20.9071C21.5834 20.9036 21.6044 20.9036 21.6324 20.9036C21.6568 20.9036 21.6778 20.9036 21.6953 20.9071C21.7128 20.9107 21.7268 20.9178 21.7407 20.9249C21.7512 20.9356 21.7617 20.9463 21.7652 20.9641C21.7722 20.9819 21.7757 21.0068 21.7757 21.0353L21.7722 21.0389Z" fill="white"/>
<path d="M25.3701 19.9671C25.3701 20.1701 25.3456 20.3552 25.3001 20.5226C25.2547 20.6899 25.1848 20.8288 25.0939 20.9463C25.0029 21.0638 24.8876 21.1529 24.7477 21.217C24.6078 21.2811 24.4435 21.3131 24.2582 21.3131C24.0729 21.3131 23.912 21.2846 23.7792 21.2241C23.6463 21.1636 23.5344 21.0781 23.4505 20.9677C23.3631 20.8573 23.3001 20.7184 23.2617 20.5582C23.2232 20.398 23.1987 20.2163 23.1987 20.0134C23.1987 19.8104 23.2232 19.6324 23.2687 19.4686C23.3141 19.3048 23.384 19.1659 23.475 19.0519C23.5659 18.938 23.6847 18.8454 23.8246 18.7849C23.9645 18.7208 24.1288 18.6887 24.3141 18.6887C24.4994 18.6887 24.6533 18.7172 24.7897 18.7777C24.9225 18.8383 25.0344 18.9237 25.1218 19.0341C25.2092 19.1445 25.2757 19.2798 25.3176 19.4365C25.3596 19.5932 25.3806 19.7748 25.3806 19.9742L25.3701 19.9671ZM25.1183 19.9885C25.1183 19.8353 25.1043 19.6965 25.0764 19.5611C25.0484 19.4294 25.0029 19.3119 24.9365 19.2157C24.8701 19.1196 24.7862 19.0412 24.6813 18.9843C24.5764 18.9273 24.4435 18.8988 24.2862 18.8988C24.1288 18.8988 23.9994 18.9273 23.891 18.9878C23.7861 19.0484 23.6987 19.1267 23.6323 19.2229C23.5659 19.319 23.5169 19.4365 23.4889 19.5683C23.461 19.7 23.4435 19.8389 23.4435 19.9849C23.4435 20.1416 23.4575 20.284 23.482 20.4193C23.5064 20.5546 23.5519 20.6686 23.6183 20.7683C23.6848 20.868 23.7652 20.9463 23.8736 20.9997C23.982 21.0532 24.1113 21.0852 24.2722 21.0852C24.433 21.0852 24.5624 21.0567 24.6708 20.9962C24.7792 20.9357 24.8666 20.8573 24.9295 20.754C24.9959 20.6543 25.0414 20.5368 25.0694 20.4051C25.0973 20.2733 25.1113 20.1344 25.1113 19.9849L25.1183 19.9885Z" fill="white"/>
<path d="M27.4435 20.3158C27.4435 20.4689 27.4261 20.6078 27.3946 20.7289C27.3596 20.8499 27.3142 20.9568 27.2477 21.0422C27.1848 21.1277 27.1044 21.1954 27.01 21.2416C26.9156 21.2879 26.8072 21.3129 26.6848 21.3129C26.6324 21.3129 26.5834 21.3057 26.5379 21.2951C26.4925 21.2844 26.447 21.2666 26.4051 21.2416C26.3631 21.2167 26.3177 21.1882 26.2757 21.1526C26.2337 21.117 26.1883 21.0743 26.1393 21.0244V21.9503C26.1393 21.9503 26.1393 21.9645 26.1323 21.9716C26.1289 21.9788 26.1219 21.9823 26.1149 21.9894C26.1044 21.993 26.0939 21.9966 26.0799 22.0001C26.0659 22.0001 26.0449 22.0001 26.0205 22.0001C25.9995 22.0001 25.9785 22.0001 25.9645 22.0001C25.9505 22.0001 25.9365 21.9966 25.9296 21.9894C25.9191 21.9859 25.9156 21.9788 25.9121 21.9716C25.9121 21.9645 25.9086 21.9574 25.9086 21.9503V19.4469C25.9086 19.4469 25.9086 19.4291 25.9121 19.422C25.9121 19.4149 25.9226 19.4113 25.9296 19.4078C25.9365 19.4042 25.9505 19.4007 25.9645 19.4007C25.9785 19.4007 25.996 19.4007 26.0135 19.4007C26.0309 19.4007 26.0484 19.4007 26.0624 19.4007C26.0764 19.4007 26.0869 19.4042 26.0939 19.4078C26.1044 19.4113 26.1079 19.4185 26.1149 19.422C26.1184 19.4291 26.1219 19.4363 26.1219 19.4469V19.7069C26.1778 19.6499 26.2268 19.6001 26.2757 19.5609C26.3247 19.5217 26.3736 19.4861 26.4226 19.4576C26.4715 19.4291 26.5205 19.4113 26.5729 19.3971C26.6254 19.3829 26.6813 19.3757 26.7372 19.3757C26.8631 19.3757 26.9715 19.4007 27.0624 19.4505C27.1533 19.5004 27.2233 19.568 27.2827 19.6535C27.3387 19.7389 27.3806 19.8387 27.4051 19.9526C27.4296 20.0665 27.4435 20.1876 27.4435 20.3194V20.3158ZM27.2023 20.3514C27.2023 20.2517 27.1953 20.1556 27.1778 20.063C27.1638 19.9704 27.1359 19.8885 27.0974 19.8137C27.0624 19.7425 27.01 19.682 26.9505 19.6392C26.8876 19.5965 26.8107 19.5751 26.7198 19.5751C26.6743 19.5751 26.6289 19.5823 26.5834 19.5965C26.5379 19.6108 26.4925 19.6321 26.447 19.6606C26.4016 19.6927 26.3526 19.7318 26.3002 19.7781C26.2512 19.828 26.1953 19.8849 26.1393 19.9562V20.736C26.2372 20.8571 26.3282 20.9497 26.4191 21.0102C26.5065 21.0743 26.6009 21.1063 26.6988 21.1063C26.7897 21.1063 26.8631 21.085 26.9296 21.0387C26.9925 20.9959 27.0449 20.9354 27.0869 20.8642C27.1254 20.793 27.1568 20.7111 27.1743 20.6221C27.1918 20.533 27.2023 20.4404 27.2023 20.3514Z" fill="white"/>
<path d="M29.3876 19.4044C29.4191 19.4044 29.4366 19.4115 29.4471 19.4258C29.4576 19.44 29.4611 19.4614 29.4611 19.4863V21.2347C29.4611 21.2347 29.4611 21.249 29.4541 21.2561C29.4506 21.2632 29.4436 21.2668 29.4366 21.2703C29.4296 21.2739 29.4156 21.2774 29.4016 21.281C29.3876 21.281 29.3667 21.2846 29.3457 21.2846C29.3212 21.2846 29.3037 21.2846 29.2897 21.281C29.2758 21.281 29.2618 21.2739 29.2548 21.2703C29.2478 21.2668 29.2408 21.2596 29.2373 21.2561C29.2338 21.249 29.2303 21.2418 29.2303 21.2347V19.6003H28.2583V20.6828C28.2583 20.8181 28.2757 20.9214 28.3142 20.9926C28.3527 21.0638 28.4226 21.0994 28.524 21.0994C28.5555 21.0994 28.5834 21.0994 28.6079 21.0887C28.6324 21.078 28.6569 21.0745 28.6744 21.0673C28.6953 21.0602 28.7093 21.0531 28.7233 21.046C28.7373 21.0389 28.7478 21.0353 28.7583 21.0353C28.7653 21.0353 28.7723 21.0353 28.7758 21.0389C28.7792 21.0389 28.7862 21.046 28.7897 21.0531C28.7932 21.0602 28.7967 21.0709 28.7967 21.0816C28.7967 21.0923 28.7967 21.1065 28.7967 21.1243C28.7967 21.1528 28.7967 21.1742 28.7897 21.192C28.7827 21.2098 28.7792 21.224 28.7688 21.2311C28.7583 21.2418 28.7443 21.249 28.7268 21.2596C28.7093 21.2703 28.6848 21.2739 28.6604 21.281C28.6359 21.2881 28.6114 21.2917 28.5834 21.2952C28.5555 21.2988 28.531 21.2988 28.503 21.2988C28.4156 21.2988 28.3422 21.2881 28.2827 21.2632C28.2233 21.2383 28.1708 21.2027 28.1324 21.1564C28.0939 21.1101 28.066 21.046 28.0485 20.9748C28.031 20.9 28.024 20.8145 28.024 20.7148V19.6003H27.7618C27.7443 19.6003 27.7303 19.5931 27.7198 19.5753C27.7093 19.5575 27.7058 19.5326 27.7058 19.5005C27.7058 19.4827 27.7058 19.4685 27.7093 19.4543C27.7093 19.4436 27.7163 19.4293 27.7198 19.4222C27.7233 19.4151 27.7303 19.408 27.7373 19.4044C27.7443 19.4008 27.7513 19.3973 27.7618 19.3973H28.024V18.9593C28.024 18.9593 28.024 18.945 28.0275 18.9379C28.0275 18.9308 28.038 18.9272 28.045 18.9201C28.0555 18.9166 28.066 18.913 28.0799 18.9094C28.0939 18.9094 28.1149 18.9094 28.1359 18.9094C28.1604 18.9094 28.1778 18.9094 28.1918 18.9094C28.2058 18.9094 28.2198 18.913 28.2268 18.9201C28.2338 18.9272 28.2408 18.9308 28.2443 18.9379C28.2478 18.945 28.2513 18.9522 28.2513 18.9593V19.3973H29.3772L29.3876 19.4044ZM29.4995 18.8418C29.4995 18.9059 29.489 18.9486 29.4681 18.97C29.4471 18.9913 29.4051 19.002 29.3492 19.002C29.2932 19.002 29.2513 18.9913 29.2303 18.97C29.2093 18.9486 29.1988 18.9059 29.1988 18.8418C29.1988 18.7777 29.2093 18.735 29.2338 18.7136C29.2548 18.6922 29.2967 18.678 29.3527 18.678C29.4086 18.678 29.4471 18.6887 29.4716 18.71C29.4925 18.7314 29.503 18.7741 29.503 18.8382L29.4995 18.8418Z" fill="white"/>
<path d="M32.6219 21.2381C32.6219 21.2381 32.6219 21.2524 32.6149 21.2595C32.6114 21.2666 32.6044 21.2702 32.5974 21.2737C32.5904 21.2773 32.5764 21.2809 32.5624 21.2844C32.5485 21.2844 32.5275 21.288 32.5065 21.288C32.4855 21.288 32.4645 21.288 32.4506 21.2844C32.4366 21.2844 32.4226 21.2773 32.4156 21.2737C32.4051 21.2702 32.4016 21.2631 32.3981 21.2595C32.3981 21.2524 32.3946 21.2453 32.3946 21.2381V20.1342C32.3946 20.0488 32.3876 19.974 32.3736 19.9028C32.3597 19.8351 32.3352 19.7746 32.3037 19.7247C32.2722 19.6749 32.2338 19.6357 32.1848 19.6108C32.1359 19.5823 32.0799 19.5716 32.0135 19.5716C31.9331 19.5716 31.8492 19.6037 31.7652 19.6678C31.6813 19.7319 31.5904 19.828 31.489 19.9526V21.2381C31.489 21.2381 31.489 21.2524 31.482 21.2595C31.4785 21.2666 31.4715 21.2702 31.4645 21.2737C31.4575 21.2773 31.4436 21.2809 31.4296 21.2844C31.4156 21.2844 31.3946 21.288 31.3736 21.288C31.3526 21.288 31.3317 21.288 31.3177 21.2844C31.3037 21.2809 31.2897 21.2773 31.2827 21.2737C31.2722 21.2702 31.2687 21.2631 31.2652 21.2595C31.2652 21.2524 31.2617 21.2453 31.2617 21.2381V20.1342C31.2617 20.0488 31.2547 19.974 31.2373 19.9028C31.2233 19.8351 31.1988 19.7746 31.1673 19.7247C31.1359 19.6749 31.0939 19.6357 31.0485 19.6108C30.9995 19.5823 30.9436 19.5716 30.8771 19.5716C30.7967 19.5716 30.7128 19.6037 30.6289 19.6678C30.5449 19.7319 30.454 19.828 30.3561 19.9526V21.2381C30.3561 21.2381 30.3561 21.2524 30.3491 21.2595C30.3456 21.2666 30.3387 21.2702 30.3317 21.2737C30.3212 21.2773 30.3107 21.2809 30.2967 21.2844C30.2827 21.2844 30.2617 21.288 30.2373 21.288C30.2163 21.288 30.1953 21.288 30.1813 21.2844C30.1673 21.2809 30.1533 21.2773 30.1463 21.2737C30.1359 21.2702 30.1324 21.2631 30.1289 21.2595C30.1289 21.2524 30.1254 21.2453 30.1254 21.2381V19.447C30.1254 19.447 30.1254 19.4327 30.1289 19.4256C30.1289 19.4185 30.1394 19.4149 30.1463 19.4078C30.1568 19.4043 30.1673 19.4007 30.1813 19.3971C30.1953 19.3971 30.2128 19.3971 30.2338 19.3971C30.2547 19.3971 30.2722 19.3971 30.2897 19.3971C30.3037 19.3971 30.3142 19.4007 30.3247 19.4078C30.3317 19.4114 30.3387 19.4185 30.3421 19.4256C30.3456 19.4327 30.3456 19.4399 30.3456 19.447V19.6998C30.447 19.5859 30.5415 19.5004 30.6324 19.4506C30.7233 19.4007 30.8142 19.3722 30.9016 19.3722C30.975 19.3722 31.0415 19.3829 31.0974 19.3971C31.1568 19.4149 31.2058 19.4399 31.2512 19.4719C31.2967 19.504 31.3317 19.5431 31.3631 19.5859C31.3946 19.6322 31.4191 19.682 31.4401 19.7354C31.4995 19.6678 31.5589 19.6108 31.6114 19.5609C31.6638 19.5146 31.7163 19.4755 31.7652 19.447C31.8142 19.4185 31.8596 19.3971 31.9051 19.3865C31.9506 19.3758 31.996 19.3687 32.038 19.3687C32.1499 19.3687 32.2408 19.39 32.3177 19.4292C32.3946 19.4684 32.4541 19.5218 32.4995 19.5894C32.545 19.6571 32.5799 19.7354 32.5974 19.8244C32.6149 19.9135 32.6289 20.0096 32.6289 20.1093V21.2346L32.6219 21.2381Z" fill="white"/>
<path d="M33.5275 18.8418C33.5275 18.9059 33.517 18.9486 33.496 18.97C33.4751 18.9913 33.4331 19.002 33.3772 19.002C33.3212 19.002 33.2793 18.9913 33.2583 18.97C33.2373 18.9486 33.2268 18.9059 33.2268 18.8418C33.2268 18.7777 33.2373 18.735 33.2583 18.7136C33.2793 18.6922 33.3212 18.678 33.3772 18.678C33.4331 18.678 33.4716 18.6887 33.496 18.71C33.517 18.7314 33.5275 18.7741 33.5275 18.8382V18.8418ZM33.4925 21.2383C33.4925 21.2383 33.4925 21.2525 33.4856 21.2596C33.4821 21.2668 33.4751 21.2703 33.4681 21.2739C33.4576 21.2774 33.4471 21.281 33.4331 21.2846C33.4191 21.2846 33.3981 21.2881 33.3737 21.2881C33.3527 21.2881 33.3317 21.2881 33.3177 21.2846C33.3037 21.281 33.2897 21.2774 33.2828 21.2739C33.2723 21.2703 33.2688 21.2632 33.2653 21.2596C33.2653 21.2525 33.2618 21.2454 33.2618 21.2383V19.4471C33.2618 19.4471 33.2618 19.4329 33.2653 19.4258C33.2653 19.4186 33.2758 19.4151 33.2828 19.408C33.2932 19.4044 33.3037 19.4008 33.3177 19.3973C33.3317 19.3973 33.3527 19.3973 33.3737 19.3973C33.3981 19.3973 33.4156 19.3973 33.4331 19.3973C33.4471 19.3973 33.4576 19.4008 33.4681 19.408C33.4751 19.4115 33.4821 19.4186 33.4856 19.4258C33.489 19.4329 33.4925 19.44 33.4925 19.4471V21.2383Z" fill="white"/>
<path d="M35.2024 21.1742C35.2024 21.1742 35.2024 21.2063 35.1989 21.2205C35.1989 21.2347 35.1919 21.2454 35.1849 21.2526C35.1779 21.2597 35.1744 21.2668 35.1639 21.2704C35.157 21.2739 35.1465 21.2775 35.1395 21.2775H34.0905C34.066 21.2775 34.0486 21.2704 34.0311 21.2526C34.0136 21.2383 34.0066 21.2098 34.0066 21.1742V21.1172C34.0066 21.1172 34.0066 21.0887 34.0101 21.0781C34.0101 21.0674 34.0171 21.0531 34.0206 21.0389C34.0241 21.0247 34.0311 21.0104 34.0416 20.9962C34.0485 20.9819 34.059 20.9641 34.073 20.9428L34.9087 19.6074H34.087C34.0695 19.6074 34.052 19.6003 34.0416 19.5825C34.0311 19.5647 34.0241 19.5398 34.0241 19.5041C34.0241 19.4863 34.0241 19.4721 34.0276 19.4579C34.0276 19.4436 34.0346 19.4329 34.0416 19.4258C34.0451 19.4187 34.052 19.4116 34.0625 19.408C34.0695 19.4044 34.08 19.4009 34.087 19.4009H35.059C35.059 19.4009 35.0835 19.4009 35.0905 19.408C35.101 19.4116 35.1115 19.4187 35.1185 19.4258C35.1255 19.4329 35.1325 19.4436 35.136 19.4579C35.1395 19.4721 35.143 19.4863 35.143 19.5041V19.5504C35.143 19.5504 35.143 19.5754 35.143 19.5896C35.143 19.6039 35.136 19.6145 35.1325 19.6288C35.129 19.643 35.122 19.6573 35.1115 19.6751C35.101 19.6929 35.0905 19.7107 35.08 19.732L34.2479 21.0674H35.143C35.143 21.0674 35.1604 21.0674 35.1674 21.0745C35.1744 21.0781 35.1814 21.0852 35.1884 21.0923C35.1954 21.0994 35.1989 21.1137 35.2024 21.1244C35.2024 21.1386 35.2059 21.1528 35.2059 21.1706L35.2024 21.1742Z" fill="white"/>
<path d="M37.045 20.2482C37.045 20.2945 37.0345 20.3301 37.01 20.3479C36.9855 20.3657 36.9611 20.3728 36.9366 20.3728H35.7373C35.7373 20.4832 35.7478 20.5829 35.7687 20.6719C35.7897 20.761 35.8247 20.8393 35.8736 20.9034C35.9226 20.9675 35.9855 21.0174 36.0659 21.0494C36.1464 21.085 36.2408 21.0993 36.3562 21.0993C36.4366 21.0993 36.51 21.0921 36.5764 21.0779C36.6429 21.0636 36.6988 21.0458 36.7443 21.028C36.7932 21.0102 36.8317 20.9924 36.8597 20.9782C36.8876 20.9639 36.9121 20.9568 36.9261 20.9568C36.9331 20.9568 36.9401 20.9568 36.9471 20.9639C36.9541 20.9675 36.9576 20.9746 36.9611 20.9817C36.9646 20.9889 36.968 21.0031 36.9715 21.0138C36.9715 21.028 36.9715 21.0423 36.9715 21.0636C36.9715 21.0743 36.9715 21.0814 36.9715 21.0886C36.9715 21.0957 36.9715 21.1064 36.968 21.1135C36.968 21.1206 36.9645 21.1277 36.9576 21.1349C36.9541 21.142 36.9471 21.1491 36.9436 21.1562C36.9366 21.1633 36.9156 21.174 36.8841 21.1918C36.8492 21.2096 36.8072 21.2239 36.7513 21.2417C36.6953 21.2595 36.6324 21.2737 36.5624 21.288C36.489 21.3022 36.4121 21.3093 36.3317 21.3093C36.1953 21.3093 36.0764 21.288 35.9715 21.2453C35.8666 21.2025 35.7792 21.142 35.7058 21.0601C35.6359 20.9782 35.5799 20.8785 35.545 20.7574C35.51 20.6363 35.489 20.4975 35.489 20.3408C35.489 20.1841 35.5065 20.0523 35.545 19.9348C35.5834 19.8138 35.6394 19.7141 35.7093 19.6286C35.7792 19.5467 35.8666 19.4826 35.968 19.4363C36.0694 19.3936 36.1813 19.3687 36.3037 19.3687C36.4366 19.3687 36.5485 19.39 36.6429 19.4363C36.7373 19.4826 36.8142 19.5431 36.8736 19.6179C36.9331 19.6927 36.9785 19.7817 37.0065 19.8814C37.0345 19.9811 37.0485 20.088 37.0485 20.1983V20.2446L37.045 20.2482ZM36.8072 20.1805C36.8107 19.9918 36.7687 19.8423 36.6778 19.7354C36.5869 19.6286 36.4576 19.5752 36.2862 19.5752C36.1988 19.5752 36.1219 19.593 36.0555 19.625C35.989 19.6606 35.9331 19.7034 35.8876 19.7568C35.8422 19.8138 35.8072 19.8779 35.7827 19.9491C35.7582 20.0239 35.7443 20.0986 35.7408 20.177H36.8107L36.8072 20.1805Z" fill="white"/>
<path d="M38.9961 21.2381C38.9961 21.2381 38.9961 21.2559 38.9926 21.2631C38.9926 21.2702 38.9821 21.2737 38.9751 21.2773C38.9681 21.2809 38.9577 21.2844 38.9437 21.288C38.9297 21.288 38.9157 21.288 38.8947 21.288C38.8737 21.288 38.8563 21.288 38.8423 21.288C38.8283 21.288 38.8178 21.2844 38.8073 21.2773C38.7968 21.2702 38.7933 21.2666 38.7863 21.2631C38.7828 21.2559 38.7793 21.2488 38.7793 21.2381V20.9817C38.6849 21.085 38.5905 21.1669 38.4891 21.2239C38.3877 21.2844 38.2793 21.3129 38.1639 21.3129C38.0381 21.3129 37.9297 21.288 37.8388 21.2381C37.7479 21.1883 37.6744 21.1206 37.6185 21.0352C37.5625 20.9497 37.5206 20.85 37.4961 20.7325C37.4716 20.6185 37.4576 20.4939 37.4576 20.3657C37.4576 20.2126 37.4751 20.0773 37.5066 19.9562C37.5381 19.8351 37.587 19.7319 37.65 19.6464C37.7129 19.5609 37.7933 19.4933 37.8842 19.447C37.9786 19.4007 38.087 19.3793 38.2094 19.3793C38.3143 19.3793 38.4122 19.4043 38.4996 19.4506C38.587 19.5004 38.6744 19.5716 38.7618 19.6642V18.5853C38.7618 18.5853 38.7619 18.571 38.7653 18.5639C38.7653 18.5568 38.7758 18.5532 38.7828 18.5496C38.7933 18.5461 38.8038 18.5425 38.8178 18.539C38.8318 18.539 38.8528 18.5354 38.8737 18.5354C38.8947 18.5354 38.9157 18.5354 38.9297 18.539C38.9437 18.539 38.9577 18.5461 38.9646 18.5496C38.9716 18.5532 38.9786 18.5603 38.9821 18.5639C38.9856 18.571 38.9891 18.5781 38.9891 18.5853V21.2453L38.9961 21.2381ZM38.7653 19.9455C38.6674 19.8244 38.573 19.7319 38.4856 19.6713C38.3947 19.6072 38.3003 19.5752 38.2024 19.5752C38.1115 19.5752 38.0381 19.5966 37.9716 19.6393C37.9087 19.682 37.8562 19.739 37.8178 19.8102C37.7758 19.8814 37.7479 19.9633 37.7304 20.0523C37.7129 20.1414 37.7024 20.234 37.7024 20.3265C37.7024 20.4262 37.7094 20.5224 37.7269 20.615C37.7409 20.7076 37.7688 20.793 37.8073 20.8642C37.8458 20.9355 37.8947 20.996 37.9576 21.0423C38.0206 21.085 38.0975 21.1099 38.1919 21.1099C38.2374 21.1099 38.2828 21.1028 38.3283 21.0886C38.3737 21.0743 38.4192 21.053 38.4646 21.0245C38.5101 20.9924 38.559 20.9533 38.608 20.907C38.657 20.8607 38.7129 20.8001 38.7688 20.7289V19.9455H38.7653Z" fill="white"/>
<path d="M39.9856 21.0389C39.9856 21.0745 39.9856 21.1065 39.9821 21.135C39.9821 21.1635 39.9716 21.192 39.9646 21.2169C39.9576 21.2419 39.9471 21.2703 39.9331 21.2953C39.9192 21.3202 39.9052 21.3487 39.8842 21.3772L39.615 21.7974C39.615 21.7974 39.6045 21.8116 39.5975 21.8187C39.5905 21.8258 39.5835 21.8294 39.573 21.833C39.5625 21.8365 39.552 21.8401 39.538 21.8401C39.5241 21.8401 39.5101 21.8401 39.4891 21.8401C39.4751 21.8401 39.4611 21.8401 39.4541 21.8401C39.4436 21.8401 39.4366 21.8365 39.4331 21.833C39.4296 21.8294 39.4261 21.8223 39.4261 21.8187C39.4261 21.8116 39.4261 21.8045 39.4331 21.7974L39.7024 21.2561V21.0353C39.7024 21.0068 39.7024 20.9819 39.7094 20.9641C39.7129 20.9463 39.7234 20.9321 39.7338 20.9249C39.7443 20.9142 39.7618 20.9107 39.7793 20.9071C39.7968 20.9036 39.8178 20.9036 39.8457 20.9036C39.8702 20.9036 39.8912 20.9036 39.9087 20.9071C39.9262 20.9107 39.9401 20.9178 39.9541 20.9249C39.9646 20.9356 39.9751 20.9463 39.9786 20.9641C39.9856 20.9819 39.9891 21.0068 39.9891 21.0353L39.9856 21.0389Z" fill="white"/>
<path d="M43.8388 21.2348C43.8388 21.2348 43.8283 21.2526 43.8213 21.2597C43.8143 21.2668 43.8003 21.274 43.7863 21.2775C43.7723 21.2811 43.7583 21.2846 43.7409 21.2882C43.7234 21.2882 43.7024 21.2882 43.6779 21.2882C43.6534 21.2882 43.6325 21.2882 43.615 21.2882C43.5975 21.2882 43.58 21.2846 43.566 21.2775C43.552 21.2704 43.5416 21.2668 43.5311 21.2597C43.5206 21.2526 43.5171 21.2419 43.5136 21.2348L42.9192 19.1303H42.9157L42.3702 21.2348C42.3702 21.2348 42.3632 21.2526 42.3562 21.2597C42.3492 21.2668 42.3387 21.274 42.3283 21.2775C42.3143 21.2811 42.3003 21.2846 42.2828 21.2882C42.2653 21.2882 42.2443 21.2882 42.2199 21.2882C42.1954 21.2882 42.1709 21.2882 42.1534 21.2882C42.1359 21.2882 42.1185 21.2846 42.1045 21.2775C42.0905 21.2704 42.08 21.2668 42.0695 21.2597C42.059 21.2526 42.0555 21.2419 42.052 21.2348L41.3387 18.7991C41.3317 18.7778 41.3282 18.76 41.3282 18.7493C41.3282 18.7386 41.3317 18.7279 41.3422 18.7208C41.3527 18.7137 41.3632 18.7101 41.3807 18.7065C41.3982 18.7065 41.4227 18.7065 41.4506 18.7065C41.4786 18.7065 41.5031 18.7065 41.5206 18.7065C41.538 18.7065 41.552 18.7101 41.559 18.7172C41.5695 18.7208 41.573 18.7279 41.5765 18.7315C41.5765 18.7386 41.5835 18.7457 41.587 18.7564L42.2199 21.0033L42.8003 18.7564C42.8003 18.7564 42.8073 18.7386 42.8108 18.7315C42.8143 18.7243 42.8213 18.7208 42.8318 18.7172C42.8422 18.7137 42.8562 18.7101 42.8737 18.7065C42.8912 18.7065 42.9157 18.7065 42.9436 18.7065C42.9646 18.7065 42.9821 18.7065 42.9961 18.7065C43.0101 18.7065 43.0206 18.7101 43.0276 18.7172C43.0346 18.7208 43.0416 18.7279 43.0485 18.7315C43.052 18.7386 43.0555 18.7457 43.059 18.7564L43.6919 21.0033H43.6954L44.3108 18.7564C44.3108 18.7564 44.3178 18.7386 44.3213 18.7315C44.3213 18.7243 44.3318 18.7208 44.3388 18.7172C44.3493 18.7137 44.3597 18.7101 44.3772 18.7065C44.3912 18.7065 44.4122 18.7065 44.4402 18.7065C44.4681 18.7065 44.4926 18.7065 44.5066 18.7101C44.5206 18.7137 44.5346 18.7172 44.5451 18.7243C44.5521 18.7315 44.559 18.7386 44.559 18.7528C44.559 18.7635 44.559 18.7813 44.5521 18.7991L43.8388 21.2348Z" fill="white"/>
<path d="M46.3108 20.2482C46.3108 20.2945 46.3004 20.3301 46.2759 20.3479C46.2514 20.3657 46.2269 20.3728 46.2024 20.3728H45.0031C45.0031 20.4832 45.0136 20.5829 45.0346 20.6719C45.0556 20.761 45.0906 20.8393 45.1395 20.9034C45.1885 20.9675 45.2514 21.0174 45.3318 21.0494C45.4122 21.085 45.5066 21.0993 45.622 21.0993C45.7024 21.0993 45.7759 21.0921 45.8423 21.0779C45.9087 21.0636 45.9647 21.0458 46.0101 21.028C46.0591 21.0102 46.0976 20.9924 46.1255 20.9782C46.1535 20.9639 46.178 20.9568 46.192 20.9568C46.199 20.9568 46.2059 20.9568 46.2129 20.9639C46.2199 20.9675 46.2234 20.9746 46.2269 20.9817C46.2304 20.9889 46.2339 21.0031 46.2374 21.0138C46.2374 21.028 46.2374 21.0423 46.2374 21.0636C46.2374 21.0743 46.2374 21.0814 46.2374 21.0886C46.2374 21.0957 46.2374 21.1064 46.2339 21.1135C46.2339 21.1206 46.2304 21.1277 46.2234 21.1349C46.2199 21.142 46.2129 21.1491 46.2094 21.1562C46.2024 21.1633 46.1815 21.174 46.15 21.1918C46.115 21.2096 46.0731 21.2239 46.0171 21.2417C45.9612 21.2595 45.8983 21.2737 45.8283 21.288C45.7549 21.3022 45.678 21.3093 45.5975 21.3093C45.4612 21.3093 45.3423 21.288 45.2374 21.2453C45.1325 21.2025 45.0451 21.142 44.9717 21.0601C44.9017 20.9782 44.8458 20.8785 44.8108 20.7574C44.7759 20.6363 44.7549 20.4975 44.7549 20.3408C44.7549 20.1841 44.7724 20.0523 44.8108 19.9348C44.8493 19.8138 44.9052 19.7141 44.9752 19.6286C45.0451 19.5467 45.1325 19.4826 45.2339 19.4363C45.3353 19.3936 45.4472 19.3687 45.5696 19.3687C45.7024 19.3687 45.8143 19.39 45.9087 19.4363C46.0031 19.4826 46.0801 19.5431 46.1395 19.6179C46.199 19.6927 46.2444 19.7817 46.2724 19.8814C46.3003 19.9811 46.3143 20.088 46.3143 20.1983V20.2446L46.3108 20.2482ZM46.0731 20.1805C46.0766 19.9918 46.0346 19.8423 45.9437 19.7354C45.8528 19.6286 45.7234 19.5752 45.5521 19.5752C45.4647 19.5752 45.3878 19.593 45.3213 19.625C45.2549 19.6606 45.1989 19.7034 45.1535 19.7568C45.108 19.8138 45.0731 19.8779 45.0486 19.9491C45.0241 20.0239 45.0101 20.0986 45.0066 20.177H46.0766L46.0731 20.1805Z" fill="white"/>
<path d="M48.3807 20.3196C48.3807 20.4727 48.3632 20.6116 48.3318 20.7327C48.3003 20.8537 48.2513 20.9606 48.1884 21.046C48.1255 21.1315 48.045 21.1991 47.9506 21.2454C47.8562 21.2917 47.7478 21.3167 47.6255 21.3167C47.5695 21.3167 47.5206 21.3095 47.4751 21.2988C47.4297 21.2882 47.3842 21.2704 47.3387 21.2454C47.2933 21.2205 47.2513 21.1885 47.2024 21.1493C47.1534 21.1101 47.108 21.0638 47.052 21.0104V21.2419C47.052 21.2419 47.052 21.2597 47.045 21.2668C47.0415 21.2739 47.0346 21.2775 47.0241 21.281C47.0136 21.2846 47.0031 21.2882 46.9926 21.2917C46.9786 21.2917 46.9646 21.2917 46.9436 21.2917C46.9227 21.2917 46.9087 21.2917 46.8947 21.2917C46.8807 21.2917 46.8702 21.2882 46.8597 21.281C46.8492 21.2739 46.8457 21.2704 46.8422 21.2668C46.8422 21.2597 46.8387 21.2526 46.8387 21.2419V18.5748C46.8387 18.5748 46.8387 18.5605 46.8422 18.5534C46.8422 18.5463 46.8527 18.5427 46.8597 18.5356C46.8702 18.532 46.8807 18.5285 46.8947 18.5249C46.9087 18.5249 46.9297 18.5249 46.9506 18.5249C46.9751 18.5249 46.9926 18.5249 47.0101 18.5249C47.0241 18.5249 47.0345 18.532 47.045 18.5356C47.052 18.5391 47.059 18.5463 47.0625 18.5534C47.066 18.5605 47.0695 18.5676 47.0695 18.5748V19.6929C47.1255 19.6323 47.1779 19.5825 47.2304 19.5433C47.2828 19.5042 47.3318 19.4721 47.3772 19.4472C47.4227 19.4223 47.4716 19.4044 47.5206 19.3938C47.5695 19.3831 47.615 19.3795 47.6674 19.3795C47.7933 19.3795 47.9017 19.4044 47.9926 19.4543C48.0835 19.5042 48.1569 19.5718 48.2129 19.6573C48.2688 19.7427 48.3108 19.8424 48.3353 19.9564C48.3597 20.0703 48.3737 20.195 48.3737 20.3232L48.3807 20.3196ZM48.1395 20.3552C48.1395 20.2555 48.1325 20.1594 48.115 20.0632C48.101 19.9706 48.073 19.8852 48.0346 19.814C47.9961 19.7427 47.9471 19.6822 47.8842 19.6395C47.8213 19.5967 47.7443 19.5718 47.6499 19.5718C47.6045 19.5718 47.559 19.5789 47.5136 19.5932C47.4681 19.6074 47.4227 19.6288 47.3772 19.6573C47.3318 19.6893 47.2828 19.7285 47.2338 19.7748C47.1849 19.8246 47.1325 19.8816 47.0765 19.9528V20.7327C47.1744 20.8537 47.2688 20.9463 47.3562 21.0069C47.4471 21.071 47.5415 21.103 47.636 21.103C47.7269 21.103 47.8003 21.0816 47.8667 21.0353C47.9297 20.9926 47.9821 20.9321 48.0206 20.8609C48.0625 20.7896 48.0905 20.7077 48.108 20.6187C48.1255 20.5297 48.136 20.4407 48.136 20.3481L48.1395 20.3552Z" fill="white"/>
<path d="M51.3493 20.3196C51.3493 20.4727 51.3319 20.6116 51.3004 20.7327C51.2689 20.8537 51.22 20.9606 51.157 21.046C51.0941 21.1315 51.0137 21.1991 50.9193 21.2454C50.8249 21.2917 50.7165 21.3167 50.5941 21.3167C50.5381 21.3167 50.4892 21.3095 50.4437 21.2988C50.3983 21.2882 50.3528 21.2704 50.3074 21.2454C50.2619 21.2205 50.22 21.1885 50.171 21.1493C50.1221 21.1101 50.0766 21.0638 50.0207 21.0104V21.2419C50.0207 21.2419 50.0207 21.2597 50.0137 21.2668C50.0102 21.2739 50.0032 21.2775 49.9927 21.281C49.9822 21.2846 49.9717 21.2882 49.9612 21.2917C49.9472 21.2917 49.9332 21.2917 49.9123 21.2917C49.8913 21.2917 49.8773 21.2917 49.8633 21.2917C49.8493 21.2917 49.8388 21.2882 49.8284 21.281C49.8179 21.2739 49.8144 21.2704 49.8109 21.2668C49.8109 21.2597 49.8074 21.2526 49.8074 21.2419V18.5748C49.8074 18.5748 49.8074 18.5605 49.8109 18.5534C49.8109 18.5463 49.8214 18.5427 49.8284 18.5356C49.8388 18.532 49.8493 18.5285 49.8633 18.5249C49.8773 18.5249 49.8983 18.5249 49.9193 18.5249C49.9437 18.5249 49.9612 18.5249 49.9787 18.5249C49.9927 18.5249 50.0032 18.532 50.0137 18.5356C50.0207 18.5391 50.0277 18.5463 50.0312 18.5534C50.0346 18.5605 50.0381 18.5676 50.0381 18.5748V19.6929C50.0941 19.6323 50.1465 19.5825 50.199 19.5433C50.2514 19.5042 50.3004 19.4721 50.3458 19.4472C50.3913 19.4223 50.4402 19.4044 50.4892 19.3938C50.5381 19.3831 50.5836 19.3795 50.6361 19.3795C50.7619 19.3795 50.8703 19.4044 50.9612 19.4543C51.0521 19.5042 51.1256 19.5718 51.1815 19.6573C51.2375 19.7427 51.2794 19.8424 51.3039 19.9564C51.3284 20.0703 51.3424 20.195 51.3424 20.3232L51.3493 20.3196ZM51.1081 20.3552C51.1081 20.2555 51.1011 20.1594 51.0836 20.0632C51.0696 19.9706 51.0416 19.8852 51.0032 19.814C50.9647 19.7427 50.9158 19.6822 50.8528 19.6395C50.7899 19.5967 50.713 19.5718 50.6186 19.5718C50.5731 19.5718 50.5277 19.5789 50.4822 19.5932C50.4368 19.6074 50.3913 19.6288 50.3458 19.6573C50.3004 19.6893 50.2514 19.7285 50.2025 19.7748C50.1535 19.8246 50.1011 19.8816 50.0451 19.9528V20.7327C50.143 20.8537 50.2375 20.9463 50.3249 21.0069C50.4158 21.071 50.5102 21.103 50.6046 21.103C50.6955 21.103 50.7689 21.0816 50.8354 21.0353C50.8983 20.9926 50.9507 20.9321 50.9892 20.8609C51.0312 20.7896 51.0591 20.7077 51.0766 20.6187C51.0941 20.5297 51.1046 20.4407 51.1046 20.3481L51.1081 20.3552Z" fill="white"/>
<path d="M53.1116 21.2381C53.1116 21.2381 53.1081 21.2631 53.0976 21.2702C53.0906 21.2773 53.0767 21.2844 53.0627 21.2844C53.0487 21.2844 53.0312 21.288 53.0067 21.288C52.9822 21.288 52.9648 21.288 52.9508 21.2844C52.9368 21.2844 52.9228 21.2773 52.9158 21.2702C52.9088 21.2631 52.9018 21.2524 52.9018 21.2381V21.0387C52.8214 21.1242 52.734 21.1919 52.6396 21.2417C52.5452 21.288 52.4473 21.3129 52.3424 21.3129C52.2515 21.3129 52.1676 21.3022 52.0941 21.2773C52.0207 21.2524 51.9578 21.2168 51.9088 21.1741C51.8599 21.1313 51.8179 21.0743 51.7934 21.0102C51.7655 20.9462 51.7515 20.8714 51.7515 20.793C51.7515 20.6933 51.7724 20.6079 51.8109 20.5331C51.8494 20.4619 51.9088 20.3978 51.9822 20.3515C52.0557 20.3016 52.1431 20.266 52.248 20.2411C52.3529 20.2162 52.4683 20.2055 52.5941 20.2055H52.8739V20.0524C52.8739 19.974 52.8669 19.9099 52.8494 19.8494C52.8319 19.7889 52.8074 19.7426 52.7725 19.7034C52.7375 19.6642 52.692 19.6357 52.6361 19.6144C52.5801 19.593 52.5137 19.5859 52.4333 19.5859C52.3529 19.5859 52.2864 19.5966 52.2235 19.6144C52.1606 19.6322 52.1081 19.6535 52.0592 19.6785C52.0137 19.7034 51.9752 19.7248 51.9438 19.7426C51.9123 19.7604 51.8913 19.7711 51.8773 19.7711C51.8703 19.7711 51.8634 19.7711 51.8564 19.7675C51.8494 19.7639 51.8459 19.7604 51.8389 19.7532C51.8319 19.7461 51.8319 19.7354 51.8284 19.7248C51.8284 19.7141 51.8284 19.6998 51.8284 19.6856C51.8284 19.6571 51.8284 19.6357 51.8354 19.6179C51.8389 19.6001 51.8494 19.5859 51.8669 19.5681C51.8843 19.5503 51.9123 19.5325 51.9543 19.5111C51.9962 19.4897 52.0452 19.4684 52.0976 19.4506C52.1501 19.4328 52.2095 19.415 52.2725 19.4043C52.3354 19.3936 52.3983 19.3865 52.4578 19.3865C52.5766 19.3865 52.6815 19.4007 52.762 19.4328C52.8424 19.4648 52.9123 19.504 52.9648 19.561C53.0172 19.6179 53.0522 19.6856 53.0732 19.7675C53.0941 19.8494 53.1081 19.942 53.1081 20.0417V21.2524L53.1116 21.2381ZM52.8808 20.3942H52.5592C52.4648 20.3942 52.3843 20.4013 52.3144 20.4191C52.2445 20.4369 52.185 20.4619 52.1396 20.4939C52.0941 20.526 52.0592 20.5651 52.0347 20.6114C52.0102 20.6577 51.9997 20.7111 51.9997 20.7681C51.9997 20.8714 52.0312 20.9533 52.0941 21.0138C52.1571 21.0743 52.248 21.1064 52.3669 21.1064C52.4578 21.1064 52.5452 21.0815 52.6256 21.0352C52.706 20.9889 52.7899 20.9141 52.8808 20.8108V20.3907V20.3942Z" fill="white"/>
<path d="M54.7864 20.761C54.7864 20.8465 54.7724 20.9248 54.7409 20.9925C54.7094 21.0601 54.664 21.1171 54.608 21.167C54.5521 21.2133 54.4822 21.2524 54.4017 21.2774C54.3213 21.3023 54.2339 21.3165 54.136 21.3165C54.0766 21.3165 54.0171 21.313 53.9647 21.3023C53.9122 21.2916 53.8598 21.2809 53.8178 21.2631C53.7724 21.2489 53.7374 21.2311 53.7059 21.2133C53.6745 21.1955 53.6535 21.1812 53.6395 21.167C53.6255 21.1527 53.615 21.1385 53.608 21.1171C53.601 21.0958 53.5975 21.0708 53.5975 21.0388C53.5975 21.021 53.5975 21.0067 53.601 20.9925C53.601 20.9782 53.608 20.9676 53.6115 20.9604C53.615 20.9498 53.622 20.9426 53.6255 20.9391C53.6325 20.9355 53.6395 20.932 53.6465 20.932C53.6605 20.932 53.6815 20.9426 53.7094 20.9604C53.7374 20.9782 53.7689 20.9996 53.8108 21.021C53.8528 21.0423 53.9017 21.0637 53.9577 21.0815C54.0136 21.0993 54.0801 21.11 54.1535 21.11C54.2129 21.11 54.2689 21.1029 54.3178 21.0886C54.3668 21.0744 54.4087 21.0566 54.4472 21.0281C54.4822 21.0032 54.5101 20.9676 54.5311 20.9248C54.5521 20.8821 54.5626 20.8358 54.5626 20.7788C54.5626 20.7219 54.5486 20.6756 54.5241 20.6364C54.4996 20.5972 54.4647 20.5652 54.4227 20.5367C54.3808 20.5082 54.3318 20.4833 54.2794 20.4619C54.2269 20.4405 54.171 20.4192 54.115 20.3943C54.0591 20.3729 54.0031 20.3444 53.9507 20.3195C53.8982 20.291 53.8493 20.2589 53.8073 20.2198C53.7654 20.1806 53.7304 20.1343 53.7059 20.0773C53.6815 20.0204 53.6675 19.9563 53.6675 19.8779C53.6675 19.8174 53.678 19.7533 53.7024 19.6963C53.7269 19.6358 53.7619 19.5824 53.8108 19.5361C53.8598 19.4898 53.9227 19.4506 53.9961 19.4221C54.0731 19.3936 54.1605 19.3794 54.2654 19.3794C54.3108 19.3794 54.3528 19.383 54.3982 19.3901C54.4402 19.3972 54.4822 19.4079 54.5171 19.4186C54.5521 19.4292 54.5836 19.4435 54.608 19.4577C54.6325 19.472 54.6535 19.4827 54.6675 19.4933C54.6815 19.504 54.692 19.5111 54.6955 19.5183C54.6989 19.5254 54.7024 19.5325 54.7059 19.5396C54.7059 19.5468 54.7094 19.5574 54.7094 19.5681C54.7094 19.5788 54.7094 19.593 54.7094 19.6073C54.7094 19.6215 54.7094 19.6358 54.7094 19.65C54.7094 19.6643 54.7059 19.6749 54.6989 19.6821C54.6954 19.6928 54.6885 19.6963 54.685 19.7034C54.6815 19.7106 54.671 19.7106 54.664 19.7106C54.6535 19.7106 54.6395 19.7034 54.6185 19.6892C54.5975 19.6749 54.5696 19.6607 54.5381 19.6429C54.5066 19.6251 54.4647 19.6109 54.4192 19.5966C54.3738 19.5824 54.3178 19.5752 54.2584 19.5752C54.1989 19.5752 54.143 19.5824 54.0975 19.5966C54.0521 19.6109 54.0136 19.6322 53.9822 19.6571C53.9542 19.6821 53.9297 19.7141 53.9157 19.7497C53.9017 19.7853 53.8947 19.8245 53.8947 19.8672C53.8947 19.9242 53.9087 19.9741 53.9332 20.0132C53.9577 20.0524 53.9926 20.088 54.0381 20.1165C54.0801 20.145 54.129 20.1699 54.185 20.1948C54.2409 20.2198 54.2933 20.2411 54.3493 20.2625C54.4052 20.2839 54.4612 20.3088 54.5171 20.3373C54.5731 20.3658 54.6185 20.3978 54.664 20.4334C54.7059 20.4726 54.7409 20.5189 54.7689 20.5723C54.7934 20.6257 54.8073 20.6898 54.8073 20.7646L54.7864 20.761Z" fill="white"/>
<path d="M56.727 20.2482C56.727 20.2945 56.7165 20.3301 56.692 20.3479C56.6675 20.3657 56.6431 20.3728 56.6186 20.3728H55.4193C55.4193 20.4832 55.4298 20.5829 55.4507 20.6719C55.4717 20.761 55.5067 20.8393 55.5556 20.9034C55.6046 20.9675 55.6675 21.0174 55.748 21.0494C55.8284 21.085 55.9228 21.0993 56.0382 21.0993C56.1186 21.0993 56.192 21.0921 56.2584 21.0779C56.3249 21.0636 56.3808 21.0458 56.4263 21.028C56.4752 21.0102 56.5137 20.9924 56.5417 20.9782C56.5696 20.9639 56.5941 20.9568 56.6081 20.9568C56.6151 20.9568 56.6221 20.9568 56.6291 20.9639C56.6361 20.9675 56.6396 20.9746 56.6431 20.9817C56.6466 20.9889 56.6501 21.0031 56.6536 21.0138C56.6536 21.028 56.6536 21.0423 56.6536 21.0636C56.6536 21.0743 56.6536 21.0814 56.6536 21.0886C56.6536 21.0957 56.6536 21.1064 56.6501 21.1135C56.6501 21.1206 56.6466 21.1277 56.6396 21.1349C56.6361 21.142 56.6291 21.1491 56.6256 21.1562C56.6186 21.1633 56.5976 21.174 56.5661 21.1918C56.5312 21.2096 56.4892 21.2239 56.4333 21.2417C56.3773 21.2595 56.3144 21.2737 56.2445 21.288C56.171 21.3022 56.0941 21.3093 56.0137 21.3093C55.8773 21.3093 55.7584 21.288 55.6535 21.2453C55.5486 21.2025 55.4612 21.142 55.3878 21.0601C55.3179 20.9782 55.2619 20.8785 55.227 20.7574C55.192 20.6363 55.171 20.4975 55.171 20.3408C55.171 20.1841 55.1885 20.0523 55.227 19.9348C55.2654 19.8138 55.3214 19.7141 55.3913 19.6286C55.4612 19.5467 55.5486 19.4826 55.65 19.4363C55.7514 19.3936 55.8633 19.3687 55.9857 19.3687C56.1186 19.3687 56.2305 19.39 56.3249 19.4363C56.4193 19.4826 56.4962 19.5431 56.5556 19.6179C56.6151 19.6927 56.6605 19.7817 56.6885 19.8814C56.7165 19.9811 56.7305 20.088 56.7305 20.1983V20.2446L56.727 20.2482ZM56.4892 20.1805C56.4927 19.9918 56.4508 19.8423 56.3598 19.7354C56.2689 19.6286 56.1396 19.5752 55.9682 19.5752C55.8808 19.5752 55.8039 19.593 55.7375 19.625C55.671 19.6606 55.6151 19.7034 55.5696 19.7568C55.5242 19.8138 55.4892 19.8779 55.4647 19.9491C55.4403 20.0239 55.4263 20.0986 55.4228 20.177H56.4927L56.4892 20.1805Z" fill="white"/>
<path d="M58.6781 21.2381C58.6781 21.2381 58.6781 21.2559 58.6746 21.2631C58.6746 21.2702 58.6641 21.2737 58.6571 21.2773C58.6501 21.2809 58.6397 21.2844 58.6257 21.288C58.6117 21.288 58.5977 21.288 58.5767 21.288C58.5557 21.288 58.5383 21.288 58.5243 21.288C58.5103 21.288 58.4998 21.2844 58.4893 21.2773C58.4788 21.2702 58.4753 21.2666 58.4683 21.2631C58.4648 21.2559 58.4613 21.2488 58.4613 21.2381V20.9817C58.3669 21.085 58.2725 21.1669 58.1711 21.2239C58.0697 21.2844 57.9613 21.3129 57.8459 21.3129C57.7201 21.3129 57.6117 21.288 57.5208 21.2381C57.4299 21.1883 57.3564 21.1206 57.3005 21.0352C57.2445 20.9497 57.2026 20.85 57.1781 20.7325C57.1536 20.6185 57.1396 20.4939 57.1396 20.3657C57.1396 20.2126 57.1571 20.0773 57.1886 19.9562C57.2201 19.8351 57.269 19.7319 57.332 19.6464C57.3949 19.5609 57.4753 19.4933 57.5662 19.447C57.6606 19.4007 57.769 19.3793 57.8914 19.3793C57.9963 19.3793 58.0942 19.4043 58.1816 19.4506C58.269 19.5004 58.3564 19.5716 58.4439 19.6642V18.5853C58.4439 18.5853 58.4439 18.571 58.4474 18.5639C58.4474 18.5568 58.4578 18.5532 58.4648 18.5496C58.4753 18.5461 58.4858 18.5425 58.4998 18.539C58.5138 18.539 58.5348 18.5354 58.5557 18.5354C58.5767 18.5354 58.5977 18.5354 58.6117 18.539C58.6257 18.539 58.6397 18.5461 58.6467 18.5496C58.6536 18.5532 58.6606 18.5603 58.6641 18.5639C58.6676 18.571 58.6711 18.5781 58.6711 18.5853V21.2453L58.6781 21.2381ZM58.4474 19.9455C58.3495 19.8244 58.255 19.7319 58.1676 19.6713C58.0767 19.6072 57.9823 19.5752 57.8844 19.5752C57.7935 19.5752 57.7201 19.5966 57.6536 19.6393C57.5907 19.682 57.5383 19.739 57.4998 19.8102C57.4578 19.8814 57.4299 19.9633 57.4124 20.0523C57.3949 20.1414 57.3844 20.234 57.3844 20.3265C57.3844 20.4262 57.3914 20.5224 57.4089 20.615C57.4229 20.7076 57.4508 20.793 57.4893 20.8642C57.5278 20.9355 57.5767 20.996 57.6397 21.0423C57.7026 21.085 57.7795 21.1099 57.8739 21.1099C57.9194 21.1099 57.9648 21.1028 58.0103 21.0886C58.0557 21.0743 58.1012 21.053 58.1467 21.0245C58.1921 20.9924 58.2411 20.9533 58.29 20.907C58.339 20.8607 58.3949 20.8001 58.4508 20.7289V19.9455H58.4474Z" fill="white"/>
<path d="M36.0092 2.94403C35.8706 2.9267 35.7353 2.96137 35.6244 3.04804C35.3956 3.22139 35.354 3.55074 35.5273 3.77609C36.6125 5.19407 37.1048 6.96567 36.9176 8.76154C36.5743 11.9997 33.9776 14.5895 30.736 14.9223C28.9298 15.106 27.1512 14.6033 25.7332 13.5008C25.6258 13.4142 25.4906 13.376 25.3519 13.3934C25.2132 13.4107 25.0884 13.48 25.0052 13.591C24.9185 13.7019 24.8838 13.8371 24.9012 13.9758C24.9185 14.1145 24.9879 14.2358 25.0988 14.3225C26.5133 15.4215 28.2086 16.004 30.008 16.004C30.2853 16.004 30.5696 15.9901 30.847 15.9624C34.5739 15.581 37.5624 12.5994 37.9542 8.87595C38.1726 6.81313 37.604 4.7815 36.3559 3.15205C36.2727 3.04111 36.1514 2.97177 36.0127 2.95096L36.0092 2.94403Z" fill="#D30B14"/>
<path d="M23.0603 7.45779C23.3203 4.01167 26.1181 1.25892 29.5712 1.05437C31.2423 0.953831 32.8891 1.45307 34.2065 2.45848C34.3174 2.54169 34.4527 2.57982 34.5913 2.55902C34.73 2.54169 34.8513 2.46888 34.938 2.35794C35.1114 2.12912 35.0663 1.80323 34.8375 1.62988C33.319 0.475395 31.4226 -0.100116 29.5088 0.0142931C25.5392 0.250044 22.3219 3.41882 22.0237 7.37806C21.8816 9.26753 22.3808 11.0773 23.4659 12.6131C23.563 12.7518 23.7225 12.8315 23.8924 12.8315C23.9999 12.8315 24.1039 12.8003 24.194 12.7345C24.4263 12.5681 24.4818 12.2422 24.3188 12.0099C23.3758 10.6751 22.939 9.10112 23.0638 7.45433L23.0603 7.45779Z" fill="#1B8DEC"/>
<path d="M29.4672 13.6499H29.5226C29.793 13.6499 30.0149 13.4488 30.0392 13.1818C30.0531 13.0431 30.0115 12.9079 29.9213 12.8005C29.8312 12.693 29.7064 12.6271 29.5712 12.6132C27.5915 12.4226 25.9586 10.9942 25.5045 9.05617C25.0954 7.30537 25.7471 5.46097 27.1616 4.35502C27.387 4.1782 27.4286 3.85231 27.2518 3.62349C27.075 3.39814 26.7456 3.35654 26.5203 3.53335C24.7868 4.88892 23.9894 7.14936 24.4886 9.28846C25.0434 11.6633 27.0438 13.4106 29.4637 13.6429L29.4672 13.6499Z" fill="#F17E2B"/>
<path d="M32.688 11.7845C32.5736 11.8643 32.5008 11.9856 32.4765 12.1208C32.4522 12.2595 32.4834 12.3947 32.5632 12.5091C32.6602 12.6478 32.8197 12.7276 32.9861 12.7276C33.0936 12.7276 33.1976 12.6929 33.2877 12.6305C35.1738 11.2922 36.0544 8.9694 35.5274 6.71589C34.9276 4.15383 32.6741 2.35103 30.0462 2.33716C29.7619 2.33716 29.5296 2.56944 29.5261 2.85373C29.5261 2.99241 29.5781 3.12415 29.6752 3.22123C29.7723 3.32177 29.904 3.37377 30.0427 3.37724C32.1887 3.39111 34.0262 4.86108 34.515 6.95511C34.9449 8.79605 34.2273 10.6925 32.6845 11.7845H32.688Z" fill="#197031"/>
</g>
<defs>
<clipPath id="clip0_362_15">
<rect width="59" height="22" fill="white"/>
</clipPath>
</defs>
</svg>
